<mxfile host="65bd71144e">
    <diagram id="pyhTybHKvUiNPaqmYFIJ" name="Страница 1">
        <mxGraphModel dx="1153" dy="798" grid="1" gridSize="10" guides="1" tooltips="1" connect="1" arrows="1" fold="1" page="1" pageScale="1" pageWidth="827" pageHeight="1169" math="0" shadow="0">
            <root>
                <mxCell id="0"/>
                <mxCell id="1" parent="0"/>
                <mxCell id="pyQvK0hn6PsAavlX7DjS-1" value="Collection" style="swimlane;fontStyle=1;align=center;verticalAlign=top;childLayout=stackLayout;horizontal=1;startSize=26;horizontalStack=0;resizeParent=1;resizeParentMax=0;resizeLast=0;collapsible=1;marginBottom=0;" parent="1" vertex="1">
                    <mxGeometry x="90" y="180" width="220" height="190" as="geometry">
                        <mxRectangle x="90" y="180" width="100" height="30" as="alternateBounds"/>
                    </mxGeometry>
                </mxCell>
                <mxCell id="pyQvK0hn6PsAavlX7DjS-2" value="+ Entries: array&lt;Entry&gt;&#10;+ SubCollections: array&lt;Collection&gt;&#10;+ EntryType: string&lt;EntryDataObject::class&gt;" style="text;strokeColor=none;fillColor=none;align=left;verticalAlign=top;spacingLeft=4;spacingRight=4;overflow=hidden;rotatable=0;points=[[0,0.5],[1,0.5]];portConstraint=eastwest;" parent="pyQvK0hn6PsAavlX7DjS-1" vertex="1">
                    <mxGeometry y="26" width="220" height="74" as="geometry"/>
                </mxCell>
                <mxCell id="pyQvK0hn6PsAavlX7DjS-3" value="" style="line;strokeWidth=1;fillColor=none;align=left;verticalAlign=middle;spacingTop=-1;spacingLeft=3;spacingRight=3;rotatable=0;labelPosition=right;points=[];portConstraint=eastwest;strokeColor=inherit;" parent="pyQvK0hn6PsAavlX7DjS-1" vertex="1">
                    <mxGeometry y="100" width="220" height="8" as="geometry"/>
                </mxCell>
                <mxCell id="pyQvK0hn6PsAavlX7DjS-4" value="+ add(Entry): void&#10;+ delete(int id): void&#10;+ contains(Entry|int id): bool&#10;+ addSubCollection(string name): void&#10; " style="text;strokeColor=none;fillColor=none;align=left;verticalAlign=top;spacingLeft=4;spacingRight=4;overflow=hidden;rotatable=0;points=[[0,0.5],[1,0.5]];portConstraint=eastwest;" parent="pyQvK0hn6PsAavlX7DjS-1" vertex="1">
                    <mxGeometry y="108" width="220" height="82" as="geometry"/>
                </mxCell>
                <mxCell id="bKpsFu1lmKkw3BwPfLWy-9" value="0..*" style="endArrow=open;html=1;endSize=12;startArrow=diamondThin;startSize=14;startFill=0;edgeStyle=orthogonalEdgeStyle;align=left;verticalAlign=bottom;rounded=0;" parent="1" target="bKpsFu1lmKkw3BwPfLWy-10" edge="1">
                    <mxGeometry x="-1" y="10" relative="1" as="geometry">
                        <mxPoint x="310" y="220" as="sourcePoint"/>
                        <mxPoint x="470" y="220" as="targetPoint"/>
                        <Array as="points">
                            <mxPoint x="400" y="220"/>
                            <mxPoint x="400" y="220"/>
                        </Array>
                        <mxPoint as="offset"/>
                    </mxGeometry>
                </mxCell>
                <mxCell id="bKpsFu1lmKkw3BwPfLWy-10" value="Entry" style="swimlane;fontStyle=1;align=center;verticalAlign=top;childLayout=stackLayout;horizontal=1;startSize=26;horizontalStack=0;resizeParent=1;resizeParentMax=0;resizeLast=0;collapsible=1;marginBottom=0;whiteSpace=wrap;html=1;" parent="1" vertex="1">
                    <mxGeometry x="430" y="180" width="160" height="80" as="geometry"/>
                </mxCell>
                <mxCell id="bKpsFu1lmKkw3BwPfLWy-11" value="&lt;div&gt;+ EntryType: string&lt;/div&gt;&lt;div&gt;+ createdAt&lt;/div&gt;" style="text;strokeColor=none;fillColor=none;align=left;verticalAlign=top;spacingLeft=4;spacingRight=4;overflow=hidden;rotatable=0;points=[[0,0.5],[1,0.5]];portConstraint=eastwest;whiteSpace=wrap;html=1;" parent="bKpsFu1lmKkw3BwPfLWy-10" vertex="1">
                    <mxGeometry y="26" width="160" height="54" as="geometry"/>
                </mxCell>
                <mxCell id="bKpsFu1lmKkw3BwPfLWy-14" value="User" style="swimlane;fontStyle=1;align=center;verticalAlign=top;childLayout=stackLayout;horizontal=1;startSize=26;horizontalStack=0;resizeParent=1;resizeParentMax=0;resizeLast=0;collapsible=1;marginBottom=0;whiteSpace=wrap;html=1;" parent="1" vertex="1">
                    <mxGeometry x="700" y="180" width="160" height="86" as="geometry"/>
                </mxCell>
                <mxCell id="bKpsFu1lmKkw3BwPfLWy-15" value="+ field: type" style="text;strokeColor=none;fillColor=none;align=left;verticalAlign=top;spacingLeft=4;spacingRight=4;overflow=hidden;rotatable=0;points=[[0,0.5],[1,0.5]];portConstraint=eastwest;whiteSpace=wrap;html=1;" parent="bKpsFu1lmKkw3BwPfLWy-14" vertex="1">
                    <mxGeometry y="26" width="160" height="26" as="geometry"/>
                </mxCell>
                <mxCell id="bKpsFu1lmKkw3BwPfLWy-16" value="" style="line;strokeWidth=1;fillColor=none;align=left;verticalAlign=middle;spacingTop=-1;spacingLeft=3;spacingRight=3;rotatable=0;labelPosition=right;points=[];portConstraint=eastwest;strokeColor=inherit;" parent="bKpsFu1lmKkw3BwPfLWy-14" vertex="1">
                    <mxGeometry y="52" width="160" height="8" as="geometry"/>
                </mxCell>
                <mxCell id="bKpsFu1lmKkw3BwPfLWy-17" value="+ method(type): type" style="text;strokeColor=none;fillColor=none;align=left;verticalAlign=top;spacingLeft=4;spacingRight=4;overflow=hidden;rotatable=0;points=[[0,0.5],[1,0.5]];portConstraint=eastwest;whiteSpace=wrap;html=1;" parent="bKpsFu1lmKkw3BwPfLWy-14" vertex="1">
                    <mxGeometry y="60" width="160" height="26" as="geometry"/>
                </mxCell>
                <mxCell id="bKpsFu1lmKkw3BwPfLWy-18" value="1" style="endArrow=open;html=1;endSize=12;startArrow=diamondThin;startSize=14;startFill=1;edgeStyle=orthogonalEdgeStyle;align=left;verticalAlign=bottom;rounded=0;" parent="1" edge="1">
                    <mxGeometry x="-1" y="3" relative="1" as="geometry">
                        <mxPoint x="700" y="221.51703703703694" as="sourcePoint"/>
                        <mxPoint x="589.9999999999998" y="224.48" as="targetPoint"/>
                        <Array as="points">
                            <mxPoint x="594" y="221.48"/>
                            <mxPoint x="594" y="224.48"/>
                        </Array>
                    </mxGeometry>
                </mxCell>
                <mxCell id="bKpsFu1lmKkw3BwPfLWy-19" value="&lt;div&gt;userId&lt;/div&gt;" style="edgeLabel;html=1;align=center;verticalAlign=middle;resizable=0;points=[];" parent="bKpsFu1lmKkw3BwPfLWy-18" vertex="1" connectable="0">
                    <mxGeometry x="-1" y="14" relative="1" as="geometry">
                        <mxPoint x="-20" y="-27" as="offset"/>
                    </mxGeometry>
                </mxCell>
                <mxCell id="bKpsFu1lmKkw3BwPfLWy-22" value="1" style="endArrow=open;html=1;endSize=12;startArrow=diamondThin;startSize=14;startFill=0;edgeStyle=orthogonalEdgeStyle;align=left;verticalAlign=bottom;rounded=0;exitX=0.394;exitY=1.02;exitDx=0;exitDy=0;exitPerimeter=0;entryX=0.5;entryY=0;entryDx=0;entryDy=0;" parent="1" source="bKpsFu1lmKkw3BwPfLWy-11" target="bKpsFu1lmKkw3BwPfLWy-52" edge="1">
                    <mxGeometry x="-0.5884" y="10" relative="1" as="geometry">
                        <mxPoint x="460" y="390" as="sourcePoint"/>
                        <mxPoint x="500" y="380" as="targetPoint"/>
                        <Array as="points">
                            <mxPoint x="493" y="290"/>
                            <mxPoint x="600" y="290"/>
                            <mxPoint x="600" y="320"/>
                            <mxPoint x="597" y="320"/>
                        </Array>
                        <mxPoint as="offset"/>
                    </mxGeometry>
                </mxCell>
                <mxCell id="bKpsFu1lmKkw3BwPfLWy-29" value="Extends" style="endArrow=block;endSize=16;endFill=0;html=1;rounded=0;" parent="1" edge="1">
                    <mxGeometry width="160" relative="1" as="geometry">
                        <mxPoint x="756.13" y="470" as="sourcePoint"/>
                        <mxPoint x="756.1299999999998" y="573" as="targetPoint"/>
                        <Array as="points">
                            <mxPoint x="756.13" y="530"/>
                        </Array>
                    </mxGeometry>
                </mxCell>
                <mxCell id="bKpsFu1lmKkw3BwPfLWy-30" value="Extends" style="endArrow=block;endSize=16;endFill=0;html=1;rounded=0;exitX=0.038;exitY=1.085;exitDx=0;exitDy=0;exitPerimeter=0;" parent="1" edge="1">
                    <mxGeometry width="160" relative="1" as="geometry">
                        <mxPoint x="435.3000000000002" y="472.21000000000004" as="sourcePoint"/>
                        <mxPoint x="436.57" y="573" as="targetPoint"/>
                    </mxGeometry>
                </mxCell>
                <mxCell id="bKpsFu1lmKkw3BwPfLWy-31" value="Extends" style="endArrow=block;endSize=16;endFill=0;html=1;rounded=0;exitX=0.498;exitY=1.152;exitDx=0;exitDy=0;exitPerimeter=0;" parent="1" edge="1">
                    <mxGeometry width="160" relative="1" as="geometry">
                        <mxPoint x="596.3" y="473.952" as="sourcePoint"/>
                        <mxPoint x="596.5699999999999" y="573" as="targetPoint"/>
                    </mxGeometry>
                </mxCell>
                <mxCell id="bKpsFu1lmKkw3BwPfLWy-33" value="Film" style="swimlane;fontStyle=0;childLayout=stackLayout;horizontal=1;startSize=26;fillColor=none;horizontalStack=0;resizeParent=1;resizeParentMax=0;resizeLast=0;collapsible=1;marginBottom=0;whiteSpace=wrap;html=1;" parent="1" vertex="1">
                    <mxGeometry x="686.9999999999998" y="573" width="140" height="52" as="geometry"/>
                </mxCell>
                <mxCell id="bKpsFu1lmKkw3BwPfLWy-35" value="+ Director: string" style="text;strokeColor=none;fillColor=none;align=left;verticalAlign=top;spacingLeft=4;spacingRight=4;overflow=hidden;rotatable=0;points=[[0,0.5],[1,0.5]];portConstraint=eastwest;whiteSpace=wrap;html=1;" parent="bKpsFu1lmKkw3BwPfLWy-33" vertex="1">
                    <mxGeometry y="26" width="140" height="26" as="geometry"/>
                </mxCell>
                <mxCell id="bKpsFu1lmKkw3BwPfLWy-37" value="Game" style="swimlane;fontStyle=0;childLayout=stackLayout;horizontal=1;startSize=26;fillColor=none;horizontalStack=0;resizeParent=1;resizeParentMax=0;resizeLast=0;collapsible=1;marginBottom=0;whiteSpace=wrap;html=1;" parent="1" vertex="1">
                    <mxGeometry x="366.9999999999998" y="573" width="140" height="52" as="geometry"/>
                </mxCell>
                <mxCell id="bKpsFu1lmKkw3BwPfLWy-65" value="+ Publisher: string" style="text;strokeColor=none;fillColor=none;align=left;verticalAlign=top;spacingLeft=4;spacingRight=4;overflow=hidden;rotatable=0;points=[[0,0.5],[1,0.5]];portConstraint=eastwest;whiteSpace=wrap;html=1;" parent="bKpsFu1lmKkw3BwPfLWy-37" vertex="1">
                    <mxGeometry y="26" width="140" height="26" as="geometry"/>
                </mxCell>
                <mxCell id="bKpsFu1lmKkw3BwPfLWy-41" value="Book" style="swimlane;fontStyle=0;childLayout=stackLayout;horizontal=1;startSize=26;fillColor=none;horizontalStack=0;resizeParent=1;resizeParentMax=0;resizeLast=0;collapsible=1;marginBottom=0;whiteSpace=wrap;html=1;" parent="1" vertex="1">
                    <mxGeometry x="526.9999999999998" y="573" width="140" height="52" as="geometry"/>
                </mxCell>
                <mxCell id="bKpsFu1lmKkw3BwPfLWy-43" value="+ NumberOfPages: int" style="text;strokeColor=none;fillColor=none;align=left;verticalAlign=top;spacingLeft=4;spacingRight=4;overflow=hidden;rotatable=0;points=[[0,0.5],[1,0.5]];portConstraint=eastwest;whiteSpace=wrap;html=1;" parent="bKpsFu1lmKkw3BwPfLWy-41" vertex="1">
                    <mxGeometry y="26" width="140" height="26" as="geometry"/>
                </mxCell>
                <mxCell id="bKpsFu1lmKkw3BwPfLWy-52" value="&lt;i&gt;EntryDataObject&lt;br&gt;&lt;/i&gt;" style="swimlane;fontStyle=0;childLayout=stackLayout;horizontal=1;startSize=26;fillColor=none;horizontalStack=0;resizeParent=1;resizeParentMax=0;resizeLast=0;collapsible=1;marginBottom=0;whiteSpace=wrap;html=1;" parent="1" vertex="1">
                    <mxGeometry x="422" y="340" width="350" height="130" as="geometry"/>
                </mxCell>
                <mxCell id="bKpsFu1lmKkw3BwPfLWy-53" value="+ Title: string" style="text;strokeColor=none;fillColor=none;align=left;verticalAlign=top;spacingLeft=4;spacingRight=4;overflow=hidden;rotatable=0;points=[[0,0.5],[1,0.5]];portConstraint=eastwest;whiteSpace=wrap;html=1;" parent="bKpsFu1lmKkw3BwPfLWy-52" vertex="1">
                    <mxGeometry y="26" width="350" height="26" as="geometry"/>
                </mxCell>
                <mxCell id="bKpsFu1lmKkw3BwPfLWy-54" value="+ Genre: string" style="text;strokeColor=none;fillColor=none;align=left;verticalAlign=top;spacingLeft=4;spacingRight=4;overflow=hidden;rotatable=0;points=[[0,0.5],[1,0.5]];portConstraint=eastwest;whiteSpace=wrap;html=1;" parent="bKpsFu1lmKkw3BwPfLWy-52" vertex="1">
                    <mxGeometry y="52" width="350" height="26" as="geometry"/>
                </mxCell>
                <mxCell id="bKpsFu1lmKkw3BwPfLWy-57" value="+ CreatedAt: date" style="text;strokeColor=none;fillColor=none;align=left;verticalAlign=top;spacingLeft=4;spacingRight=4;overflow=hidden;rotatable=0;points=[[0,0.5],[1,0.5]];portConstraint=eastwest;whiteSpace=wrap;html=1;" parent="bKpsFu1lmKkw3BwPfLWy-52" vertex="1">
                    <mxGeometry y="78" width="350" height="26" as="geometry"/>
                </mxCell>
                <mxCell id="bKpsFu1lmKkw3BwPfLWy-59" value="+ Author: string" style="text;strokeColor=none;fillColor=none;align=left;verticalAlign=top;spacingLeft=4;spacingRight=4;overflow=hidden;rotatable=0;points=[[0,0.5],[1,0.5]];portConstraint=eastwest;whiteSpace=wrap;html=1;" parent="bKpsFu1lmKkw3BwPfLWy-52" vertex="1">
                    <mxGeometry y="104" width="350" height="26" as="geometry"/>
                </mxCell>
                <UserObject label="*" placeholders="1" name="Variable" id="4">
                    <mxCell style="text;html=1;strokeColor=none;fillColor=none;align=center;verticalAlign=middle;whiteSpace=wrap;overflow=hidden;fontSize=20;" vertex="1" parent="1">
                        <mxGeometry x="600" y="300" width="33" height="20" as="geometry"/>
                    </mxCell>
                </UserObject>
            </root>
        </mxGraphModel>
    </diagram>
</mxfile>